<svg xmlns="http://www.w3.org/2000/svg" xmlns:xlink="http://www.w3.org/1999/xlink" width="200" zoomAndPan="magnify" viewBox="0 0 150 67.499998" height="90" preserveAspectRatio="xMidYMid meet" version="1.0"><defs><g/><clipPath id="9192c39a93"><path d="M 4.386719 9.550781 L 58.933594 9.550781 L 58.933594 64.101562 L 4.386719 64.101562 Z M 4.386719 9.550781 " clip-rule="nonzero"/></clipPath><clipPath id="1eea835512"><path d="M 31.660156 9.550781 C 16.597656 9.550781 4.386719 21.761719 4.386719 36.828125 C 4.386719 51.890625 16.597656 64.101562 31.660156 64.101562 C 46.722656 64.101562 58.933594 51.890625 58.933594 36.828125 C 58.933594 21.761719 46.722656 9.550781 31.660156 9.550781 " clip-rule="nonzero"/></clipPath><clipPath id="730df0c8c4"><path d="M 13 16.3125 L 50.417969 16.3125 L 50.417969 57.222656 L 13 57.222656 Z M 13 16.3125 " clip-rule="nonzero"/></clipPath></defs><g clip-path="url(#9192c39a93)"><g clip-path="url(#1eea835512)"><path fill="#ee2b5a" d="M 4.386719 9.550781 L 58.933594 9.550781 L 58.933594 64.101562 L 4.386719 64.101562 Z M 4.386719 9.550781 " fill-opacity="1" fill-rule="nonzero"/></g></g><g clip-path="url(#730df0c8c4)"><path fill="#ffffff" d="M 45.832031 52.945312 C 45.785156 51.300781 45.167969 49.847656 44 48.621094 C 43.53125 48.132812 43.035156 47.652344 42.554688 47.1875 C 42.054688 46.707031 41.539062 46.207031 41.050781 45.695312 C 39.867188 44.449219 39.027344 42.925781 38.558594 41.160156 C 38.507812 40.96875 38.457031 40.773438 38.40625 40.578125 C 38.195312 39.761719 37.976562 38.914062 37.664062 38.136719 C 36.710938 35.757812 34.949219 34.425781 32.429688 34.179688 C 32.179688 34.152344 31.933594 34.140625 31.691406 34.140625 C 29.886719 34.140625 28.351562 34.820312 27.117188 36.171875 C 25.917969 37.484375 25.472656 39.121094 25.195312 40.554688 C 24.84375 42.375 24.230469 43.804688 23.316406 44.929688 C 22.375 46.089844 21.332031 47.136719 20.527344 47.917969 C 18.984375 49.421875 18.167969 50.898438 17.960938 52.570312 C 17.828125 53.644531 18.039062 54.539062 18.605469 55.308594 C 19.203125 56.113281 20.085938 56.644531 21.300781 56.929688 C 22.480469 57.207031 23.449219 57.222656 24.351562 56.980469 C 24.730469 56.878906 25.40625 56.753906 25.953125 56.660156 C 26.441406 56.578125 26.796875 56.15625 26.796875 55.660156 L 26.796875 50.503906 C 26.796875 47.835938 28.980469 45.625 31.652344 45.644531 C 32.972656 45.65625 34.164062 46.191406 35.027344 47.054688 C 35.902344 47.925781 36.441406 49.128906 36.441406 50.460938 L 36.441406 55.46875 C 36.441406 55.984375 36.832031 56.421875 37.347656 56.472656 C 37.445312 56.484375 37.542969 56.496094 37.640625 56.503906 C 37.933594 56.535156 38.21875 56.59375 38.496094 56.648438 C 38.601562 56.667969 38.710938 56.691406 38.816406 56.710938 C 39.292969 56.796875 39.765625 56.882812 40.242188 56.972656 L 40.777344 57.070312 C 42.011719 56.96875 42.976562 56.710938 43.8125 56.269531 C 45.191406 55.535156 45.871094 54.417969 45.832031 52.945312 Z M 35.277344 52.300781 C 35.277344 51.871094 34.929688 51.527344 34.5 51.527344 C 34.070312 51.527344 33.722656 51.871094 33.722656 52.300781 C 33.722656 52.730469 34.070312 53.078125 34.5 53.078125 C 34.929688 53.078125 35.277344 52.730469 35.277344 52.300781 Z M 21.5 28.546875 C 19.902344 27.097656 18.648438 26.492188 17.167969 26.445312 C 17.117188 26.445312 17.066406 26.445312 17.019531 26.445312 C 15.542969 26.445312 14.34375 27.128906 13.644531 28.371094 C 13.03125 29.453125 12.855469 30.699219 13.125 32.074219 C 13.40625 33.53125 14.066406 34.796875 15.136719 35.941406 C 16.421875 37.3125 17.875 38 19.578125 38.042969 C 20.777344 38.070312 21.816406 37.601562 22.578125 36.6875 C 23.214844 35.921875 23.554688 34.992188 23.589844 33.925781 C 23.65625 31.863281 22.894531 29.902344 21.5 28.546875 Z M 49.617188 28.164062 C 48.890625 26.820312 47.6875 26.078125 46.226562 26.078125 C 46.210938 26.078125 46.199219 26.078125 46.183594 26.078125 C 44.9375 26.089844 43.773438 26.5625 42.710938 27.480469 C 41.589844 28.453125 40.820312 29.65625 40.363281 31.15625 C 39.816406 32.953125 39.945312 34.550781 40.761719 36.046875 C 41.339844 37.097656 42.265625 37.761719 43.4375 37.960938 C 44.417969 38.128906 45.394531 37.957031 46.339844 37.453125 C 48.160156 36.480469 49.480469 34.84375 49.960938 32.957031 C 50.417969 30.855469 50.316406 29.46875 49.617188 28.164062 Z M 35.195312 26.757812 C 34.597656 27.648438 33.816406 28.253906 32.871094 28.566406 C 31.738281 28.941406 30.609375 28.789062 29.609375 28.128906 C 28.183594 27.195312 27.316406 25.84375 26.957031 24 C 26.65625 22.460938 26.769531 21.039062 27.300781 19.65625 C 27.804688 18.347656 28.613281 17.382812 29.707031 16.789062 C 30.289062 16.472656 30.898438 16.3125 31.515625 16.3125 C 32.269531 16.3125 33.011719 16.550781 33.71875 17.019531 C 34.949219 17.84375 35.691406 19.023438 36.277344 21.09375 C 36.738281 22.980469 36.34375 25.046875 35.195312 26.757812 " fill-opacity="1" fill-rule="nonzero"/></g><g fill="#ee2b5a" fill-opacity="1"><g transform="translate(63.098449, 34.767617)"><g><path d="M 5.898438 -6.21875 C 5.765625 -6.566406 5.585938 -6.855469 5.339844 -7.085938 C 5.089844 -7.324219 4.800781 -7.496094 4.457031 -7.621094 C 4.109375 -7.742188 3.722656 -7.808594 3.296875 -7.808594 L 2.175781 -7.808594 C 1.335938 -7.808594 0.410156 -7.011719 0.410156 -6.03125 L 0.410156 0 C 1.441406 0 2.28125 -0.964844 2.28125 -2.160156 L 2.28125 -2.222656 L 3.203125 -2.222656 C 3.617188 -2.222656 4.003906 -2.289062 4.359375 -2.40625 C 4.71875 -2.519531 5.023438 -2.703125 5.28125 -2.941406 C 5.535156 -3.179688 5.742188 -3.476562 5.882812 -3.824219 C 6.03125 -4.175781 6.097656 -4.582031 6.097656 -5.042969 L 6.097656 -5.058594 C 6.097656 -5.496094 6.03125 -5.882812 5.898438 -6.21875 Z M 4.234375 -4.941406 C 4.234375 -4.628906 4.136719 -4.382812 3.945312 -4.203125 C 3.757812 -4.011719 3.5 -3.921875 3.164062 -3.921875 L 2.28125 -3.921875 L 2.28125 -5.996094 L 3.15625 -5.996094 C 3.492188 -5.996094 3.757812 -5.90625 3.945312 -5.734375 C 4.136719 -5.5625 4.234375 -5.304688 4.234375 -4.96875 Z M 4.234375 -4.941406 "/></g></g></g><g fill="#ee2b5a" fill-opacity="1"><g transform="translate(71.270496, 34.767617)"><g><path d="M 2.117188 -3.054688 L 3.898438 -3.054688 L 4.300781 -4.753906 L 2.117188 -4.753906 L 2.117188 -5.929688 L 3.773438 -5.929688 C 4.777344 -5.929688 5.445312 -6.746094 5.445312 -7.761719 L 2.101562 -7.761719 C 1.121094 -7.761719 0.320312 -6.960938 0.320312 -5.972656 L 0.320312 -1.746094 C 0.320312 -0.773438 1.09375 0 2.066406 0 L 3.261719 0 C 4.265625 0 5.050781 -0.816406 5.050781 -1.828125 L 2.117188 -1.828125 Z M 2.117188 -3.054688 "/></g></g></g><g fill="#ee2b5a" fill-opacity="1"><g transform="translate(78.692887, 34.767617)"><g><path d="M 1.621094 -7.703125 C 0.699219 -7.703125 -0.0429688 -7.019531 -0.0429688 -6.023438 L 2.109375 -6.023438 L 2.109375 0 C 3.105469 0 3.914062 -0.742188 3.914062 -1.65625 L 3.914062 -6.023438 L 4.398438 -6.023438 C 5.320312 -6.023438 6.0625 -6.707031 6.0625 -7.703125 Z M 1.621094 -7.703125 "/></g></g></g><g fill="#ee2b5a" fill-opacity="1"><g transform="translate(63.098449, 45.751484)"><g><path d="M 5.898438 -6.21875 C 5.765625 -6.566406 5.585938 -6.855469 5.339844 -7.085938 C 5.089844 -7.324219 4.800781 -7.496094 4.457031 -7.621094 C 4.109375 -7.742188 3.722656 -7.808594 3.296875 -7.808594 L 2.175781 -7.808594 C 1.335938 -7.808594 0.410156 -7.011719 0.410156 -6.03125 L 0.410156 0 C 1.441406 0 2.28125 -0.964844 2.28125 -2.160156 L 2.28125 -2.222656 L 3.203125 -2.222656 C 3.617188 -2.222656 4.003906 -2.289062 4.359375 -2.40625 C 4.71875 -2.519531 5.023438 -2.703125 5.28125 -2.941406 C 5.535156 -3.179688 5.742188 -3.476562 5.882812 -3.824219 C 6.03125 -4.175781 6.097656 -4.582031 6.097656 -5.042969 L 6.097656 -5.058594 C 6.097656 -5.496094 6.03125 -5.882812 5.898438 -6.21875 Z M 4.234375 -4.941406 C 4.234375 -4.628906 4.136719 -4.382812 3.945312 -4.203125 C 3.757812 -4.011719 3.5 -3.921875 3.164062 -3.921875 L 2.28125 -3.921875 L 2.28125 -5.996094 L 3.15625 -5.996094 C 3.492188 -5.996094 3.757812 -5.90625 3.945312 -5.734375 C 4.136719 -5.5625 4.234375 -5.304688 4.234375 -4.96875 Z M 4.234375 -4.941406 "/></g></g></g><g fill="#ee2b5a" fill-opacity="1"><g transform="translate(71.270496, 45.751484)"><g><path d="M 2.222656 -7.734375 C 1.226562 -7.734375 0.410156 -6.992188 0.410156 -6.070312 L 0.410156 -0.015625 C 0.410156 -0.0078125 0.410156 0 0.410156 0 L 3.699219 0 C 4.621094 0 5.363281 -0.808594 5.363281 -1.8125 L 2.222656 -1.8125 Z M 2.222656 -7.734375 "/></g></g></g><g fill="#ee2b5a" fill-opacity="1"><g transform="translate(78.717598, 45.751484)"><g><path d="M 4.515625 -6.730469 C 4.40625 -7.152344 4.183594 -7.4375 3.824219 -7.644531 C 3.625 -7.761719 3.410156 -7.816406 3.179688 -7.816406 C 2.949219 -7.816406 2.734375 -7.761719 2.546875 -7.644531 C 2.183594 -7.4375 1.953125 -7.152344 1.855469 -6.730469 L 0.0585938 -0.0507812 C 0.988281 0.171875 1.902344 -0.328125 2.117188 -1.179688 L 2.207031 -1.546875 L 2.242188 -1.738281 L 4.117188 -1.738281 L 4.160156 -1.546875 L 4.25 -1.179688 C 4.457031 -0.328125 5.378906 0.171875 6.300781 -0.0507812 Z M 3.832031 -3.121094 L 2.527344 -3.121094 L 3.179688 -5.625 Z M 3.832031 -3.121094 "/></g></g></g><g fill="#ee2b5a" fill-opacity="1"><g transform="translate(86.76607, 45.751484)"><g><path d="M 5.222656 -6.070312 L 5.222656 -3.238281 L 2.09375 -7.75 C 1.160156 -7.75 0.410156 -6.992188 0.410156 -6.070312 L 0.410156 0.0429688 C 1.34375 0.0429688 2.09375 -0.707031 2.09375 -1.640625 L 2.09375 -4.761719 L 5.222656 -0.570312 L 5.222656 0.0429688 C 6.152344 0.0429688 6.945312 -0.714844 6.945312 -1.648438 L 6.945312 -7.75 C 6.011719 -7.75 5.222656 -6.992188 5.222656 -6.070312 Z M 5.222656 -6.070312 "/></g></g></g><g fill="#ee2b5a" fill-opacity="1"><g transform="translate(95.786627, 45.751484)"><g><path d="M 2.117188 -3.054688 L 3.898438 -3.054688 L 4.300781 -4.753906 L 2.117188 -4.753906 L 2.117188 -5.929688 L 3.773438 -5.929688 C 4.777344 -5.929688 5.445312 -6.746094 5.445312 -7.761719 L 2.101562 -7.761719 C 1.121094 -7.761719 0.320312 -6.960938 0.320312 -5.972656 L 0.320312 -1.746094 C 0.320312 -0.773438 1.09375 0 2.066406 0 L 3.261719 0 C 4.265625 0 5.050781 -0.816406 5.050781 -1.828125 L 2.117188 -1.828125 Z M 2.117188 -3.054688 "/></g></g></g><g fill="#ee2b5a" fill-opacity="1"><g transform="translate(103.209019, 45.751484)"><g><path d="M 1.621094 -7.703125 C 0.699219 -7.703125 -0.0429688 -7.019531 -0.0429688 -6.023438 L 2.109375 -6.023438 L 2.109375 0 C 3.105469 0 3.914062 -0.742188 3.914062 -1.65625 L 3.914062 -6.023438 L 4.398438 -6.023438 C 5.320312 -6.023438 6.0625 -6.707031 6.0625 -7.703125 Z M 1.621094 -7.703125 "/></g></g></g><g fill="#ee2b5a" fill-opacity="1"><g transform="translate(110.895026, 45.751484)"><g><path d="M 5.941406 -7.050781 C 5.890625 -7.160156 5.808594 -7.265625 5.691406 -7.363281 C 5.378906 -7.667969 4.941406 -7.816406 4.472656 -7.859375 C 4.191406 -7.882812 3.378906 -7.898438 3.066406 -7.898438 C 2.726562 -7.898438 2.421875 -7.882812 2.125 -7.859375 C 1.1875 -7.769531 0.410156 -7.109375 0.410156 -6.1875 L 0.410156 -1.558594 C 0.410156 -1.242188 0.503906 -0.949219 0.660156 -0.699219 C 0.707031 -0.585938 0.789062 -0.484375 0.90625 -0.386719 C 1.21875 -0.0820312 1.65625 0.0664062 2.125 0.105469 C 2.40625 0.132812 2.703125 0.148438 3.023438 0.148438 C 3.351562 0.148438 4.175781 0.140625 4.472656 0.105469 C 5.414062 0.0234375 6.1875 -0.632812 6.1875 -1.558594 L 6.1875 -6.1875 C 6.1875 -6.5 6.097656 -6.796875 5.941406 -7.050781 Z M 4.472656 -2.085938 C 4.433594 -1.828125 4.265625 -1.648438 3.996094 -1.648438 L 2.601562 -1.648438 C 2.339844 -1.648438 2.167969 -1.828125 2.125 -2.085938 L 2.125 -5.707031 C 2.167969 -5.964844 2.332031 -6.144531 2.601562 -6.144531 L 3.996094 -6.144531 C 4.265625 -6.144531 4.433594 -5.964844 4.472656 -5.699219 Z M 4.472656 -2.085938 "/></g></g></g><g fill="#ee2b5a" fill-opacity="1"><g transform="translate(119.157684, 45.751484)"><g><path d="M 0.410156 -6.105469 L 0.410156 0.03125 C 1.410156 0.03125 2.207031 -0.707031 2.207031 -1.613281 L 2.207031 -7.75 C 1.21875 -7.75 0.410156 -7.011719 0.410156 -6.105469 Z M 0.410156 -6.105469 "/></g></g></g><g fill="#ee2b5a" fill-opacity="1"><g transform="translate(123.449645, 45.751484)"><g><path d="M 3.1875 -7.835938 L 2.125 -7.835938 C 2.125 -7.835938 2.125 -7.835938 2.117188 -7.835938 L 1.9375 -7.835938 L 1.9375 -7.824219 C 1.023438 -7.734375 0.410156 -7.011719 0.410156 -6.136719 L 0.410156 0.0585938 C 0.410156 0.0585938 0.421875 0.0585938 0.421875 0.0585938 L 3.1875 0.0585938 C 4.8125 0.0585938 6.039062 -1.144531 6.039062 -2.570312 L 6.039062 -4.984375 C 6.039062 -6.789062 4.8125 -7.835938 3.1875 -7.835938 Z M 4.367188 -2.84375 C 4.367188 -2.191406 3.839844 -1.613281 3.1875 -1.613281 L 2.125 -1.613281 C 2.125 -1.621094 2.125 -1.640625 2.125 -1.648438 L 2.125 -6.160156 L 3.1875 -6.160156 C 3.839844 -6.160156 4.367188 -5.585938 4.367188 -4.933594 Z M 4.367188 -2.84375 "/></g></g></g></svg>